<svg width="18" height="19" viewBox="0 0 18 19" fill="none" xmlns="http://www.w3.org/2000/svg">
<path d="M8.0841 11.8933L13.4466 6.53069L12.3859 5.47004L8.08409 9.77195L5.61398 7.30185L4.55332 8.36251L8.0841 11.8933Z" fill="#D74D4D"/>
<path d="M0.750043 0L0.75 10.5001C0.75 12.6247 1.86473 14.5936 3.68657 15.6867L8.99969 18.8747L14.3134 15.6866C16.1353 14.5936 17.2501 12.6247 17.2501 10.5001L17.2501 0H0.750043ZM2.25 10.5001L2.25004 1.5H15.7501L15.7501 10.5001C15.7501 12.0978 14.9118 13.5784 13.5417 14.4004L8.99972 17.1254L4.45834 14.4005C3.08829 13.5784 2.25 12.0978 2.25 10.5001Z" fill="#D74D4D"/>
</svg>
